<svg display="none" xmlns="http://www.w3.org/2000/svg">

  <symbol id="squiggle" viewBox="0 0 84 60">
    <path d="M2.0005 39.7415C6.69866 31.7297 19.9739 17.7978 35.4898 26.1646C54.8847 36.6232 22.7935 43.5005 39.5114 19.7255C50.2272 4.48632 72.2869 20.2392 80.0674 28.3374" stroke="white" stroke-width="3"/>
  </symbol>

  <symbol id="mail" viewBox="0 0 18 13">
    <path d="M17.3571 0H0.642869C0.287816 0 0 0.287817 0 0.642832V12.2143C0 12.5693 0.287816 12.8571 0.642869 12.8571H17.3571C17.7122 12.8571 18 12.5693 18 12.2143V0.642832C18 0.287817 17.7122 0 17.3571 0ZM16.3029 1.2857L8.99998 6.903L1.69714 1.2857H16.3029ZM16.7143 11.5714H1.2857V2.59133L8.6085 8.22403C8.8394 8.40133 9.16059 8.40133 9.3915 8.22403L16.7143 2.59133V11.5714Z" fill="white"/>
   </symbol>

  <symbol id="pin" viewBox="0 0 18 18">
    <path d="M9 0C5.51067 0 2.67188 2.8388 2.67188 6.32812C2.67188 7.50705 2.99844 8.65758 3.61649 9.65574L8.63979 17.7507C8.73601 17.9058 8.90553 18 9.08786 18C9.08926 18 9.09063 18 9.09204 18C9.27594 17.9986 9.44582 17.9014 9.54028 17.7436L14.4355 9.57023C15.0195 8.59317 15.3281 7.47207 15.3281 6.32812C15.3281 2.8388 12.4893 0 9 0ZM13.5304 9.02876L9.07987 16.4597L4.5129 9.10005C3.99846 8.26924 3.71953 7.31074 3.71953 6.32812C3.71953 3.42035 6.09223 1.04766 9 1.04766C11.9078 1.04766 14.277 3.42035 14.277 6.32812C14.277 7.2816 14.0164 8.21559 13.5304 9.02876Z" fill="white"/>
    <path d="M9 3.16406C7.25534 3.16406 5.83594 4.58346 5.83594 6.32812C5.83594 8.06164 7.23224 9.49219 9 9.49219C10.7896 9.49219 12.1641 8.04259 12.1641 6.32812C12.1641 4.58346 10.7447 3.16406 9 3.16406ZM9 8.44453C7.83081 8.44453 6.88359 7.49415 6.88359 6.32812C6.88359 5.16502 7.83689 4.21172 9 4.21172C10.1631 4.21172 11.1129 5.16502 11.1129 6.32812C11.1129 7.47714 10.1877 8.44453 9 8.44453Z" fill="white"/>
  </symbol>

  <symbol id="facebook" viewBox="0 0 18 19">
    <path d="M2.63672 18.1396H8.50781V11.6916H6.39844V9.56583H8.50781V6.90866C8.50781 5.44189 9.68906 4.25148 11.1445 4.25148H13.7812V6.37722H11.6719C11.0918 6.37722 10.6172 6.85551 10.6172 7.44009V9.56583H13.6863L13.3348 11.6916H10.6172V18.1396H15.3633C16.8188 18.1396 18 16.9492 18 15.4825V2.65718C18 1.19041 16.8188 0 15.3633 0H2.63672C1.18125 0 0 1.19041 0 2.65718V15.4825C0 16.9492 1.18125 18.1396 2.63672 18.1396ZM1.05469 2.65718C1.05469 1.77854 1.76484 1.06287 2.63672 1.06287H15.3633C16.2352 1.06287 16.9453 1.77854 16.9453 2.65718V15.4825C16.9453 16.3611 16.2352 17.0768 15.3633 17.0768H11.6719V12.7544H14.2277L14.9309 8.50296H11.6719V7.44009H14.8359V3.18861H11.1445C9.10898 3.18861 7.45312 4.85732 7.45312 6.90866V8.50296H5.34375V12.7544H7.45312V17.0768H2.63672C1.76484 17.0768 1.05469 16.3611 1.05469 15.4825V2.65718Z" fill="white"/>
  </symbol>
  <symbol id="instagram" viewBox="0 0 18 19">
    <path d="M17.9542 5.33185C17.9119 4.36629 17.7569 3.70603 17.5349 3.13095C17.3059 2.52038 16.9536 1.97726 16.4956 1.52288C16.0446 1.0614 15.4985 0.702867 14.9031 0.479227C14.3288 0.255588 13.677 0.0993953 12.7187 0.0567973C11.7534 0.0106495 11.4469 0 9.00176 0C6.55666 0 6.25015 0.0106495 5.29184 0.0532475C4.33353 0.0958455 3.67821 0.252038 3.10746 0.475678C2.50147 0.706417 1.96242 1.0614 1.51145 1.52288C1.05344 1.97726 0.697592 2.52748 0.475631 3.1274C0.25367 3.70603 0.0986494 4.36275 0.0563711 5.3283C0.0105696 6.30095 0 6.60979 0 9.06982C0 11.5299 0.0105696 11.8422 0.0528479 12.8078C0.0951262 13.7734 0.250147 14.4336 0.472108 15.0087C0.701116 15.6193 1.05696 16.1624 1.51145 16.6168C1.96242 17.0782 2.50851 17.4368 3.10393 17.6604C3.67821 17.8841 4.33001 18.0403 5.28831 18.0828C6.24662 18.1254 6.55314 18.1361 8.99824 18.1361C11.4433 18.1361 11.7499 18.1254 12.7082 18.0828C13.6665 18.0403 14.3218 17.8841 14.8925 17.6604C16.101 17.1883 17.0593 16.2263 17.5279 15.0051C17.7499 14.4265 17.9049 13.7698 17.9472 12.8042C17.9894 11.8351 18 11.5299 18 9.06627C18 6.60269 17.9965 6.30095 17.9542 5.33185ZM16.3335 12.7404C16.2948 13.6278 16.1468 14.1035 16.0235 14.423C15.7205 15.2146 15.0969 15.8394 14.3147 16.1446C13.9977 16.2689 13.5185 16.418 12.6447 16.457C11.6935 16.4996 11.4116 16.5103 9.00881 16.5103C6.60599 16.5103 6.31709 16.4996 5.37287 16.457C4.49207 16.418 4.01996 16.2689 3.70288 16.1446C3.3118 15.9991 2.95596 15.7684 2.67058 15.4666C2.37111 15.172 2.1421 14.817 1.99765 14.4265C1.87434 14.107 1.72637 13.6243 1.68761 12.7439C1.64533 11.7854 1.63476 11.5015 1.63476 9.08047C1.63476 6.65949 1.64533 6.3684 1.68761 5.41705C1.72637 4.52959 1.87434 4.05391 1.99765 3.73442C2.13858 3.33684 2.36759 2.98186 2.67058 2.69077C2.96301 2.38904 3.31533 2.1583 3.70288 2.01276C4.01996 1.88851 4.49912 1.73942 5.37287 1.70037C6.32413 1.65777 6.60599 1.64712 9.00881 1.64712C11.4151 1.64712 11.7005 1.65777 12.6447 1.70037C13.5255 1.73942 13.9977 1.88851 14.3147 2.01276C14.7058 2.1583 15.0617 2.38904 15.347 2.69077C15.6465 2.98541 15.8755 3.34039 16.02 3.73442C16.1433 4.05391 16.2913 4.53669 16.33 5.41705C16.3723 6.3755 16.3829 6.65949 16.3829 9.08047C16.3829 11.5015 16.3758 11.7819 16.3335 12.7404Z" fill="white"/>
    <path d="M9.00095 4.41309C6.44664 4.41309 4.375 6.50039 4.375 9.07402C4.375 11.6476 6.44664 13.7349 9.00095 13.7349C11.5553 13.7349 13.6269 11.6476 13.6269 9.07402C13.6269 6.50039 11.5553 4.41309 9.00095 4.41309ZM9.00095 12.0949C7.34505 12.0949 5.99919 10.7424 5.99919 9.07047C5.99919 7.3985 7.34153 6.04601 9.00095 6.04601C10.6569 6.04601 12.0027 7.3985 12.0027 9.07047C12.0027 10.7424 10.6604 12.0949 9.00095 12.0949Z" fill="white"/>
    <path d="M14.8925 4.22828C14.8925 4.82842 14.4098 5.31493 13.8144 5.31493C13.219 5.31493 12.7363 4.82842 12.7363 4.22828C12.7363 3.62813 13.219 3.14162 13.8144 3.14162C14.4063 3.13807 14.8925 3.62813 14.8925 4.22828Z" fill="white"/>
  </symbol>
  <symbol id="youtube" viewBox="0 0 25 19">
    <path d="M15.6945 7.99948L10.393 5.10406C10.0883 4.93567 9.72734 4.94502 9.42734 5.12277C9.12734 5.30052 8.94922 5.61392 8.94922 5.96006V11.6948C8.94922 12.0409 9.12734 12.3496 9.42266 12.5274C9.57734 12.6209 9.75078 12.6677 9.92422 12.6677C10.0836 12.6677 10.2383 12.6303 10.3836 12.5508L15.6852 9.7068C15.9992 9.5384 16.1961 9.21097 16.1961 8.85548C16.2008 8.49998 16.0086 8.17255 15.6945 7.99948ZM10.3555 10.9744V6.68508L14.3164 8.8508L10.3555 10.9744Z" fill="white"/>
    <path d="M23.8219 4.27998V4.27063C23.8031 4.07885 23.5969 2.36218 22.7625 1.49215C21.7969 0.46308 20.7047 0.341463 20.1797 0.280655C20.1375 0.275977 20.0953 0.2713 20.0625 0.266622L20.0156 0.261944C16.8422 0.032743 12.0516 0 12.0047 0H12H11.9953C11.9484 0 7.15781 0.032743 3.95625 0.261944L3.91406 0.266622C3.88125 0.2713 3.84375 0.275977 3.80156 0.280655C3.28125 0.341463 2.19844 0.46308 1.22813 1.52957C0.43125 2.39024 0.201562 4.06949 0.178125 4.2566L0.173438 4.27998C0.16875 4.3595 0 6.27263 0 8.19044V9.98195C0 11.8998 0.16875 13.8082 0.178125 13.8877V13.9018C0.196875 14.0935 0.398438 15.7728 1.23281 16.6475C2.14219 17.6391 3.29063 17.7701 3.90469 17.8403C4.00313 17.8496 4.0875 17.859 4.14375 17.873L4.2 17.8824C6.03281 18.0555 11.775 18.1443 12.0187 18.1443H12.0281H12.0375C12.0844 18.1443 16.875 18.1116 20.0484 17.8824L20.0906 17.8777C20.1328 17.873 20.175 17.8683 20.2266 17.8637C20.7422 17.8075 21.8203 17.6953 22.7766 16.6475C23.5734 15.7868 23.8031 14.1076 23.8266 13.9205L23.8312 13.8971C23.8406 13.8176 24.0094 11.9091 24.0094 9.99131V8.19979C24 6.27263 23.8313 4.3595 23.8219 4.27998ZM22.5938 9.98195C22.5938 11.7548 22.4391 13.5837 22.425 13.7521C22.3641 14.2152 22.125 15.277 21.7359 15.698C21.1359 16.3528 20.5266 16.4183 20.0766 16.4651C20.0203 16.4698 19.9734 16.4744 19.9266 16.4838C16.8563 16.7036 12.2484 16.7411 12.0328 16.7411C11.7938 16.7364 6.13594 16.6522 4.35938 16.4885C4.27031 16.4744 4.17188 16.4604 4.06875 16.451C3.54375 16.3902 2.82188 16.3107 2.26875 15.7026L2.25469 15.6886C1.875 15.291 1.63594 14.2994 1.57969 13.7661C1.57031 13.6398 1.41094 11.7922 1.41094 9.99131V8.19979C1.41094 6.42699 1.56563 4.60274 1.57969 4.42967C1.65 3.88707 1.89844 2.88607 2.26875 2.48379C2.88281 1.80555 3.53437 1.7307 3.96562 1.68393C4.00781 1.67925 4.04531 1.67457 4.07812 1.6699C7.19063 1.44537 11.8359 1.41263 12 1.41263C12.1687 1.41263 16.8094 1.44537 19.8937 1.6699C19.9312 1.67457 19.9734 1.67925 20.0156 1.68393C20.4562 1.73538 21.1266 1.81022 21.7359 2.46041L21.7406 2.46508C22.1203 2.86268 22.3594 3.87303 22.4156 4.42031C22.425 4.54193 22.5844 6.39425 22.5844 8.19512V9.98195H22.5938Z" fill="white"/>
  </symbol>
</svg>